<svg xmlns="http://www.w3.org/2000/svg" width="24" height="24" viewBox="0 0 24 24"><!-- SAM GH icon energyCentre_merge --><g vector-effect="non-scaling-stroke"><polygon points="15.4,5.6 17.8,6.8 15.4,8 13,6.8" fill="#FFFFFF" stroke="#111111" stroke-width="1.1" stroke-linejoin="round"/><polygon points="13,6.8 15.4,8 15.4,18 13,16.8" fill="#E3E3E3" stroke="#111111" stroke-width="1.1" stroke-linejoin="round"/><polygon points="17.8,6.8 15.4,8 15.4,18 17.8,16.8" fill="#BDBDBD" stroke="#111111" stroke-width="1.1" stroke-linejoin="round"/><polygon points="5.8,9.1 15.8,14.1 9.8,17.1 -0.2,12.1" fill="#ADD485" stroke="#111111" stroke-width="1.1" stroke-linejoin="round"/><polygon points="-0.2,12.1 9.8,17.1 9.8,21.6 -0.2,16.6" fill="#81BC44" stroke="#111111" stroke-width="1.1" stroke-linejoin="round"/><polygon points="15.8,14.1 9.8,17.1 9.8,21.6 15.8,18.6" fill="#659335" stroke="#111111" stroke-width="1.1" stroke-linejoin="round"/></g><circle cx="19" cy="19" r="5" fill="#FFFFFF"/><circle cx="19" cy="19" r="4.2" fill="#F6C90E"/><path d="M16.6 16.6L19 19.2L21.4 16.6M19 19.2V21.6" fill="none" stroke="#111111" stroke-width="1.8" stroke-linecap="round" stroke-linejoin="round"/></svg>
