<svg xmlns="http://www.w3.org/2000/svg" width="24" height="24" viewBox="0 0 24 24"><!-- SAM GH icon fan_library_import --><g vector-effect="non-scaling-stroke"><rect x="7.5" y="1.5" width="12" height="12" rx="1.2" fill="#FFFFFF" stroke="#111111" stroke-width="1.1"/><rect x="5.5" y="3.5" width="12" height="12" rx="1.2" fill="#FFFFFF" stroke="#111111" stroke-width="1.1"/><path d="M9.5 4.5h7M9.5 6.5h5" fill="none" stroke="#111111" stroke-width="1" stroke-linecap="round" stroke-linejoin="round"/><g transform="translate(-0.5 4.2) scale(0.74)"><circle cx="10" cy="10" r="7.5" fill="#ADD485" stroke="#111111" stroke-width="1.49"/><polygon points="10,10 15.8,10 12.61,13.29" fill="#659335" stroke="#111111" stroke-width="1.08" stroke-linejoin="round"/><polygon points="10,10 7.1,15.02 5.85,10.62" fill="#659335" stroke="#111111" stroke-width="1.08" stroke-linejoin="round"/><polygon points="10,10 7.1,4.98 11.54,6.09" fill="#659335" stroke="#111111" stroke-width="1.08" stroke-linejoin="round"/><circle cx="10" cy="10" r="1.4" fill="#FFFFFF" stroke="#111111" stroke-width="1.49"/></g></g><circle cx="19" cy="19" r="5" fill="#FFFFFF"/><circle cx="19" cy="19" r="3.9" fill="#FFFFFF" stroke="#111111" stroke-width="0.9"/><path d="M19 16.1V19.4" fill="none" stroke="#111111" stroke-width="2" stroke-linecap="round" stroke-linejoin="round"/><polygon points="16.5,18.8 21.5,18.8 19,21.9" fill="#111111"/></svg>
